<?xml version="1.0" encoding="UTF-8" standalone="no"?>
<!-- Created with Inkscape (http://www.inkscape.org/) -->

<svg
   width="655.23486"
   height="639.74286"
   viewBox="0 0 173.36422 169.2653"
   version="1.1"
   id="svg1"
   sodipodi:docname="jokedisk.svg"
   inkscape:version="1.4 (86a8ad7, 2024-10-11)"
   xmlns:inkscape="http://www.inkscape.org/namespaces/inkscape"
   xmlns:sodipodi="http://sodipodi.sourceforge.net/DTD/sodipodi-0.dtd"
   xmlns:xlink="http://www.w3.org/1999/xlink"
   xmlns="http://www.w3.org/2000/svg"
   xmlns:svg="http://www.w3.org/2000/svg">
  <sodipodi:namedview
     id="namedview1"
     pagecolor="#505050"
     bordercolor="#eeeeee"
     borderopacity="1"
     inkscape:showpageshadow="0"
     inkscape:pageopacity="0"
     inkscape:pagecheckerboard="0"
     inkscape:deskcolor="#505050"
     showgrid="false"
     inkscape:zoom="2.7345084"
     inkscape:cx="365.8793"
     inkscape:cy="448.161"
     inkscape:window-width="2560"
     inkscape:window-height="1417"
     inkscape:window-x="1912"
     inkscape:window-y="-8"
     inkscape:window-maximized="1"
     inkscape:current-layer="g78" />
  <defs
     id="defs1">
    <inkscape:path-effect
       effect="bend_path"
       id="path-effect1"
       is_visible="true"
       lpeversion="1"
       bendpath="m 55.632011,140.32997 c 24.268469,9.9764 44.889449,9.75535 62.100149,0"
       prop_scale="1"
       scale_y_rel="false"
       vertical="false"
       hide_knot="false"
       bendpath-nodetypes="cc" />
    <linearGradient
       id="linearGradient6">
      <stop
         style="stop-color:#ff0000;stop-opacity:0.1;"
         offset="0"
         id="stop6" />
      <stop
         style="stop-color:#fff600;stop-opacity:0.10196079;"
         offset="0.25214195"
         id="stop8" />
      <stop
         style="stop-color:#43ff00;stop-opacity:0.10196079;"
         offset="0.48186529"
         id="stop10" />
      <stop
         style="stop-color:#00ffff;stop-opacity:0.10196079;"
         offset="0.74093264"
         id="stop11" />
      <stop
         style="stop-color:#0001fe;stop-opacity:0.10196079;"
         offset="0.9300673"
         id="stop12" />
      <stop
         style="stop-color:#9f00ff;stop-opacity:0.1;"
         offset="1"
         id="stop7" />
    </linearGradient>
    <filter
       style="color-interpolation-filters:sRGB"
       id="filter14-1"
       x="-0.22270308"
       y="-0.31805375"
       width="1.4454062"
       height="1.6361075">
      <feGaussianBlur
         stdDeviation="5.5725701"
         id="feGaussianBlur14-4" />
    </filter>
    <filter
       style="color-interpolation-filters:sRGB"
       id="filter14-4-0"
       x="-0.23718088"
       y="-0.33634272"
       width="1.4743618"
       height="1.6726854">
      <feGaussianBlur
         stdDeviation="6.0001656"
         id="feGaussianBlur14-3-7" />
    </filter>
    <linearGradient
       xlink:href="#linearGradient6"
       id="linearGradient78"
       gradientUnits="userSpaceOnUse"
       gradientTransform="matrix(0.54555531,0,0,0.54555531,-5.196862,116.24669)"
       x1="-248.26454"
       y1="-15.265503"
       x2="-202.58525"
       y2="-14.954308" />
    <linearGradient
       xlink:href="#linearGradient6"
       id="linearGradient79"
       gradientUnits="userSpaceOnUse"
       gradientTransform="matrix(0.54555531,0,0,0.54555531,377.17807,222.73146)"
       x1="-248.26454"
       y1="-15.265503"
       x2="-202.58525"
       y2="-14.954308" />
    <filter
       style="color-interpolation-filters:sRGB"
       id="filter105"
       x="-0.1048696"
       y="-0.22174817"
       width="1.2097392"
       height="1.4524647">
      <feFlood
         result="flood"
         in="SourceGraphic"
         flood-opacity="1.000000"
         flood-color="rgb(0,0,0)"
         id="feFlood103" />
      <feGaussianBlur
         result="blur"
         in="SourceGraphic"
         stdDeviation="5.000000"
         id="feGaussianBlur103" />
      <feOffset
         result="offset"
         in="blur"
         dx="0.000000"
         dy="0.000000"
         id="feOffset103" />
      <feComposite
         result="comp1"
         operator="in"
         in="flood"
         in2="offset"
         id="feComposite104" />
      <feComposite
         result="comp2"
         operator="over"
         in="SourceGraphic"
         in2="comp1"
         id="feComposite105" />
    </filter>
    <clipPath
       clipPathUnits="userSpaceOnUse"
       id="clipPath2">
      <rect
         style="fill:#1a1a1a;stroke-width:9.81583;stroke-linecap:square;stroke-miterlimit:1.6"
         id="rect4"
         width="136.69139"
         height="133.45955"
         x="88.073318"
         y="-335.17303"
         transform="rotate(94.964731)" />
    </clipPath>
  </defs>
  <g
     id="layer1"
     transform="translate(-577.7823,181.06624)">
    <g
       id="g78"
       transform="matrix(-0.10976092,-1.2635308,1.2635308,-0.10976092,466.07986,244.03011)"
       style="filter:url(#filter105)"
       clip-path="url(#clipPath2)">
      <circle
         style="fill:#cccccc;fill-opacity:1;stroke:none;stroke-width:10;stroke-linecap:square;stroke-miterlimit:1.6"
         id="circle74"
         cx="253.89922"
         cy="179.06389"
         r="57.213913" />
      <circle
         style="fill:#ececec;fill-opacity:1;stroke:none;stroke-width:11.3393;stroke-linecap:square;stroke-miterlimit:1.6"
         id="circle75"
         cx="253.89922"
         cy="179.06389"
         r="15.246161" />
      <circle
         style="fill:#1a1a1a;fill-opacity:1;stroke:none;stroke-width:4.34003;stroke-linecap:square;stroke-miterlimit:1.6"
         id="circle76"
         cx="253.89922"
         cy="179.06389"
         r="6.1479645" />
      <path
         id="path76"
         style="mix-blend-mode:normal;fill:url(#linearGradient78);stroke-width:5.45555;stroke-linecap:square;stroke-miterlimit:1.6;filter:url(#filter14-1)"
         d="m -128.47571,86.978373 29.943831,33.285987 c -9.180341,5.74442 -19.323991,8.66577 -30.430941,8.76404 -13.23429,-0.67667 -22.80029,-3.62265 -29.62287,-8.2658 z"
         transform="rotate(180,62.4682,125.43919)" />
      <path
         id="path77"
         style="mix-blend-mode:normal;fill:url(#linearGradient79);stroke-width:5.45555;stroke-linecap:square;stroke-miterlimit:1.6;filter:url(#filter14-4-0)"
         d="m 253.89922,193.46315 30.25585,34.16014 c -8.54996,5.50129 -18.63524,8.38613 -30.25585,8.65451 -10.76096,0.004 -20.91395,-2.92282 -30.45898,-8.78166 z" />
      <path
         d="m 59.834893,142.79777 c -0.34853,0.15256 -0.742388,0.28129 -1.181546,0.38473 -0.287583,0.0668 -0.564671,0.11162 -0.830824,0.13483 -0.260359,0.0254 -0.448467,0.0152 -0.563378,-0.0294 -0.05749,-0.0223 -0.102882,-0.0588 -0.136124,-0.10939 -0.02961,-0.0429 -0.03271,-0.0943 -0.0094,-0.15424 0.03394,-0.0871 0.09804,-0.14993 0.192161,-0.18854 0.09201,-0.0332 0.202601,-0.0466 0.331861,-0.0406 0.0657,3.3e-4 0.154218,0.009 0.265727,0.0273 0.14013,0.0288 0.271205,0.0382 0.393068,0.0282 0.230078,-0.0188 0.510453,-0.0754 0.839576,-0.17101 0.336819,-0.0989 0.607703,-0.19882 0.812459,-0.29803 0.338118,-0.16245 0.604305,-0.31835 0.798839,-0.46567 0.20236,-0.15087 0.340613,-0.33132 0.415706,-0.54054 0.04151,-0.11565 0.01455,-0.21849 -0.08046,-0.30869 -0.09306,-0.0957 -0.221184,-0.17313 -0.384537,-0.2327 -0.416832,-0.15202 -0.822362,-0.22164 -1.218928,-0.20847 -0.177049,0.009 -0.297714,0.0155 -0.36483,0.0215 -0.235396,0.0106 -0.428009,0.0152 -0.575976,0.0146 -0.167209,-0.002 -0.326796,-0.007 -0.478652,-0.016 -0.149983,-0.0144 -0.250115,-0.0224 -0.301702,-0.0236 -0.03491,0.10557 -0.06981,0.21115 -0.104687,0.31674 -0.03196,0.0816 -0.08035,0.21336 -0.145004,0.39509 -0.05905,0.184 -0.11943,0.35489 -0.18124,0.5127 -0.147094,0.37558 -0.294777,0.66896 -0.443847,0.88046 -0.05277,0.0671 -0.0999,0.11139 -0.141359,0.13273 -0.04145,0.0213 -0.102286,0.0162 -0.182415,-0.0156 -0.05152,-0.0204 -0.09371,-0.056 -0.126544,-0.10674 -0.03284,-0.0507 -0.03951,-0.10057 -0.0201,-0.14946 0.0065,-0.0163 0.06886,-0.0984 0.186855,-0.24636 0.117994,-0.148 0.202656,-0.28735 0.254214,-0.41774 0.167786,-0.4243 0.361262,-0.97181 0.582513,-1.64512 0.04107,-0.12826 0.08217,-0.25651 0.123299,-0.38475 0.108501,-0.37156 0.204074,-0.66087 0.285883,-0.86706 0.06251,-0.15755 0.152198,-0.35124 0.269031,-0.58156 0.119015,-0.23581 0.198841,-0.38935 0.240003,-0.46118 -0.230521,-0.028 -0.535307,-0.0358 -0.916532,-0.0252 -0.108764,3.7e-4 -0.256887,0.0193 -0.444989,0.0565 -0.17263,0.0308 -0.28392,0.0358 -0.33334,0.0156 -0.04397,-0.0179 -0.07467,-0.0526 -0.09207,-0.10387 -0.0174,-0.0513 -0.01495,-0.10389 0.0073,-0.15785 0.04224,-0.10252 0.280412,-0.15897 0.713339,-0.17294 0.432985,-0.014 0.890148,0.002 1.372287,0.0467 0.434142,0.0384 0.811725,0.0871 1.134409,0.14773 0.322509,0.0606 0.642692,0.15029 0.961312,0.269 0.291137,0.10848 0.511735,0.25494 0.662465,0.4408 0.158177,0.18228 0.201005,0.37498 0.127124,0.57845 -0.175692,0.48387 -0.623664,0.8889 -1.353225,1.20461 0.253258,0.0566 0.477979,0.12034 0.674511,0.19193 0.258252,0.0941 0.461334,0.22617 0.609845,0.3973 0.148499,0.17111 0.179274,0.38052 0.09126,0.62865 -0.09388,0.26468 -0.287962,0.49709 -0.584183,0.69556 -0.293995,0.1928 -0.676961,0.39432 -1.149199,0.60103 1.6e-5,-8e-5 3.2e-5,-1.7e-4 4.8e-5,-2.5e-4 z m 0.726202,-4.41786 c -0.226056,-0.0844 -0.519502,-0.16354 -0.881581,-0.23927 -0.360095,-0.0812 -0.644481,-0.12901 -0.85501,-0.14201 -0.238454,0.33373 -0.407289,0.62491 -0.505712,0.87524 -0.138852,0.35316 -0.297849,0.80625 -0.475587,1.35759 0.05815,0.0164 0.156417,0.0298 0.294439,0.0398 0.143737,0.0121 0.277306,0.0168 0.400637,0.0143 0.616795,-0.0127 1.167325,-0.13035 1.650059,-0.35007 0.4828,-0.21976 0.79067,-0.51875 0.927724,-0.89194 0.0484,-0.13179 0.02099,-0.25391 -0.0817,-0.3665 -0.100692,-0.1181 -0.258385,-0.21689 -0.473261,-0.29712 -1e-6,0 -2e-6,1e-5 -3e-6,1e-5 z m 4.791883,6.89433 c -0.02052,0.0671 -0.07386,0.13649 -0.160215,0.20792 -0.08464,0.0658 -0.156557,0.0896 -0.215516,0.0715 -0.100247,-0.0309 -0.158672,-0.11336 -0.175103,-0.24711 -0.01644,-0.13378 -1.13e-4,-0.27881 0.04868,-0.43519 0.04225,-0.13542 0.175653,-0.53201 0.402373,-1.19819 0.03598,-0.10521 0.07196,-0.21043 0.107925,-0.31564 0.04003,-0.12846 0.03417,-0.2314 -0.01734,-0.3088 -0.391262,0.3433 -0.751273,0.6345 -1.077397,0.87383 -0.326277,0.23944 -0.710011,0.44126 -1.151742,0.60355 -0.439908,0.15674 -0.85451,0.16889 -1.239557,0.0373 -0.186695,-0.0638 -0.313349,-0.16951 -0.379714,-0.31634 -0.06057,-0.14486 -0.05981,-0.30567 0.0017,-0.48251 0.07701,-0.22135 0.285873,-0.48555 0.624473,-0.79613 0.340399,-0.31602 0.736888,-0.61614 1.188339,-0.90276 0.45322,-0.2921 0.878936,-0.51484 1.27903,-0.66755 0.263745,-0.0987 0.465778,-0.15653 0.607931,-0.17248 0.143801,-0.0215 0.263502,-0.0172 0.359457,0.0132 0.0903,0.0286 0.174631,0.0858 0.253249,0.17178 0.07859,0.086 0.136288,0.18978 0.173113,0.31146 0.03681,0.1217 0.03552,0.24684 -0.0042,0.37538 -0.05358,0.17324 -0.152968,0.32317 -0.298825,0.44934 0.05295,0.001 0.105893,0.002 0.158822,0.003 0.0629,0.0195 0.07681,0.10639 0.04178,0.26087 -0.02179,0.0912 -0.07201,0.2747 -0.150607,0.55042 -0.07286,0.27773 -0.1337,0.5064 -0.18298,0.68734 -0.05091,0.1863 -0.100095,0.36702 -0.147563,0.54215 -0.04741,0.17514 -0.08364,0.31394 -0.10873,0.41639 -0.0061,0.041 0.0044,0.0901 0.03181,0.14741 0.02911,0.0517 0.03944,0.0916 0.03089,0.11955 -2.1e-5,2e-5 -4.2e-5,4e-5 -6.4e-5,6e-5 z m -0.02737,-2.58992 c 0.121335,-0.14586 0.212308,-0.3166 0.273464,-0.51202 0.03669,-0.11725 0.03113,-0.22932 -0.01638,-0.33626 -0.04008,-0.11073 -0.119508,-0.18484 -0.238478,-0.22263 -0.141717,-0.045 -0.352842,-0.008 -0.635368,0.10963 -0.323811,0.12895 -0.686406,0.32412 -1.090012,0.58463 -0.401786,0.25498 -0.756476,0.52103 -1.063217,0.79999 -0.306833,0.27905 -0.495361,0.51686 -0.563799,0.71634 -0.05695,0.166 -0.0043,0.27702 0.158531,0.33246 0.31384,0.10688 0.654234,0.0976 1.018319,-0.0285 0.364122,-0.12609 0.708465,-0.30621 1.032705,-0.5398 0.33157,-0.23711 0.707508,-0.5383 1.124235,-0.90384 z m 3.334533,6.01386 c -0.322897,0.16353 -0.64775,0.27712 -0.973529,0.3407 -0.321151,0.0709 -0.58663,0.0768 -0.794541,0.0191 -0.116227,-0.0323 -0.19086,-0.0835 -0.223866,-0.15343 -0.03459,-0.0643 -0.04148,-0.13311 -0.02083,-0.20625 0.01907,-0.0675 0.178362,-0.10745 0.477314,-0.12179 0.448397,-0.009 0.888922,-0.11475 1.31886,-0.31559 0.333083,-0.15389 0.599773,-0.35962 0.800923,-0.61554 0.201171,-0.25595 0.339308,-0.5343 0.416111,-0.83425 0.08694,-0.33953 0.142779,-0.65705 0.168142,-0.95207 0.03132,-0.29395 0.05299,-0.6586 0.06656,-1.09613 0.0077,-0.46244 0.03229,-0.85239 0.0718,-1.16789 -0.165949,0.23403 -0.402125,0.50788 -0.709594,0.81858 -0.301881,0.31249 -0.643103,0.59871 -1.024421,0.85742 -0.358949,0.24662 -0.674516,0.4163 -0.9438,0.50996 -0.263476,0.0954 -0.499514,0.11267 -0.706496,0.0524 -0.177453,-0.0517 -0.291442,-0.1554 -0.341687,-0.31051 -0.04271,-0.15904 -0.02961,-0.35338 0.03874,-0.58327 0.11346,-0.38163 0.369707,-0.7926 0.76421,-1.23791 0.394224,-0.44499 0.824136,-0.80139 1.288998,-1.07065 0.464995,-0.26935 0.867822,-0.35786 1.215061,-0.26374 0.11952,0.0324 0.199258,0.0992 0.239395,0.20068 0.04583,0.10301 0.05316,0.21382 0.02165,0.33243 -0.04051,0.15251 -0.09234,0.22037 -0.15546,0.20349 -0.01721,-0.005 -0.03489,-0.0305 -0.05298,-0.0777 -0.01085,-0.0513 -0.02891,-0.0985 -0.05415,-0.14165 -0.02526,-0.0431 -0.05787,-0.0701 -0.09792,-0.0809 -0.291733,-0.079 -0.632286,-9e-5 -1.026464,0.2353 -0.388351,0.23696 -0.74682,0.54182 -1.074821,0.91561 -0.320815,0.37013 -0.522938,0.69102 -0.603503,0.96639 -0.04435,0.15156 -0.05584,0.26698 -0.03434,0.34637 0.02737,0.0811 0.08821,0.13535 0.182448,0.16261 0.141297,0.0409 0.335066,0.0113 0.579781,-0.0894 0.244501,-0.1007 0.552671,-0.2817 0.92056,-0.54399 0.327994,-0.23104 0.643469,-0.51789 0.946261,-0.86031 0.309996,-0.3464 0.563121,-0.68776 0.761,-1.02229 0.02034,-0.0309 0.04491,-0.0546 0.0737,-0.0712 0.03451,-0.0151 0.06891,-0.0181 0.103211,-0.009 0.05146,0.0135 0.09851,0.0438 0.141241,0.0911 0.0499,0.0432 0.07054,0.0817 0.06179,0.11559 -0.0058,0.0226 -0.01812,0.0466 -0.03689,0.0719 -0.0116,0.0211 -0.02099,0.0338 -0.02816,0.038 -0.03995,0.31989 -0.07029,0.83149 -0.08578,1.52524 -0.0074,0.49306 -0.02338,0.90359 -0.05004,1.23478 -0.01927,0.32646 -0.06608,0.63986 -0.141377,0.94019 -0.110822,0.44201 -0.304423,0.82108 -0.584231,1.13611 -0.279745,0.31495 -0.577534,0.55237 -0.892918,0.71188 1e-5,-5e-5 1.9e-5,-9e-5 2.8e-5,-1.3e-4 z m 3.483983,-1.99832 c -0.100468,0.38447 -0.178671,0.69844 -0.23472,0.94336 -0.07424,0.32442 -0.126837,0.62364 -0.157433,0.89811 -0.0112,0.10523 -0.0213,0.1777 -0.03039,0.21757 -0.02077,0.0911 -0.05969,0.16304 -0.11689,0.21588 -0.0585,0.0585 -0.127663,0.0787 -0.207335,0.0604 -0.110334,-0.0253 -0.162944,-0.0766 -0.157947,-0.15329 0.01629,-0.0975 0.04246,-0.25149 0.07799,-0.45838 0.04034,-0.20042 0.08444,-0.40295 0.132249,-0.60763 0.09599,-0.39727 0.191944,-0.79454 0.287854,-1.19183 -0.02991,-0.007 -0.08706,-0.0172 -0.17198,-0.031 -0.07887,-0.0124 -0.157049,-0.0278 -0.234507,-0.0462 -0.143115,-0.034 -0.191875,-0.145 -0.146767,-0.33231 0.03282,-0.13627 0.08479,-0.1958 0.155836,-0.1788 0.02378,0.006 0.09061,0.0397 0.201207,0.10189 0.110527,0.0622 0.207511,0.10285 0.290633,0.12223 0.184751,-0.80521 0.369584,-1.6104 0.554501,-2.41557 -0.04527,-0.0168 -0.137634,-0.0474 -0.279645,-0.093 -0.140155,-0.0513 -0.240025,-0.10546 -0.299555,-0.16183 -0.05379,-0.0551 -0.07166,-0.11953 -0.0538,-0.1933 0.03572,-0.14757 0.08225,-0.21438 0.139573,-0.20051 0.06307,0.0153 0.134981,0.0566 0.216005,0.12399 0.0098,0.008 0.04079,0.0341 0.09122,0.0757 0.05205,0.0364 0.12852,0.0725 0.22936,0.10816 0.05578,-0.0829 0.101923,-0.13801 0.138563,-0.16543 0.04237,-0.0261 0.1094,-0.0284 0.201193,-0.007 0.114716,0.0265 0.166945,0.0624 0.156541,0.10798 -0.0039,0.0171 -0.01966,0.0464 -0.04731,0.088 -0.02635,0.0359 -0.0441,0.0737 -0.05321,0.11355 0.345478,0.13331 0.724914,0.32883 1.142739,0.58554 0.424646,0.25214 0.779657,0.53009 1.065227,0.8367 0.291313,0.30765 0.412133,0.60332 0.357112,0.88983 -0.07798,0.40606 -0.411066,0.67039 -1.005695,0.78247 -0.593549,0.11187 -1.343471,0.10426 -2.240764,-0.0347 4.9e-5,-1.4e-4 9.8e-5,-2.8e-4 1.48e-4,-4.1e-4 z m 0.589813,-2.73946 c -0.06399,0.33246 -0.155631,0.77308 -0.274669,1.32048 -0.117941,0.54282 -0.196513,0.90028 -0.237043,1.07756 0.356631,0.0814 0.747392,0.12347 1.170437,0.12471 0.424237,-0.004 0.788487,-0.0546 1.091622,-0.14801 0.310363,-0.098 0.482547,-0.23991 0.518563,-0.42286 0.04734,-0.24044 -0.05165,-0.48536 -0.293354,-0.73663 -0.241764,-0.25132 -0.546731,-0.48127 -0.914873,-0.69199 -0.362377,-0.20948 -0.715279,-0.38398 -1.060643,-0.52325 -1.3e-5,0 -2.7e-5,-1e-5 -4e-5,-1e-5 z m 4.214304,-1.01801 c -0.09661,-0.0175 -0.188843,-0.0758 -0.276219,-0.17493 -0.08169,-0.0981 -0.117529,-0.17307 -0.107972,-0.22463 0.01169,-0.0631 0.05112,-0.11794 0.118122,-0.16478 0.07265,-0.0458 0.139887,-0.0631 0.20191,-0.0517 0.07936,0.0442 0.141623,0.10288 0.186835,0.17617 0.037,0.054 0.07714,0.12341 0.120595,0.20815 0.04346,0.0847 0.0638,0.13561 0.06077,0.15286 -0.01511,0.086 -0.116424,0.11274 -0.304031,0.0788 -2e-6,2e-5 -4e-6,3e-5 -5e-6,4e-5 z m -0.704978,5.50464 c -0.08425,-0.0209 -0.125339,-0.16134 -0.122747,-0.4212 0.0087,-0.25879 0.0551,-0.7452 0.140361,-1.45819 0.05978,-0.46891 0.120902,-0.92592 0.183149,-1.37073 0.06319,-0.44987 0.114169,-0.79759 0.151924,-1.03881 0.01143,-0.0631 0.0284,-0.10741 0.05088,-0.13294 0.02928,-0.0302 0.07269,-0.0401 0.130299,-0.0297 0.132456,0.0239 0.206399,0.0931 0.22187,0.20833 0.01545,0.11508 -0.0039,0.32788 -0.05815,0.63778 -0.06226,0.33819 -0.124569,0.67638 -0.18691,1.01456 -0.101711,0.58018 -0.165367,1.04755 -0.19053,1.40442 -0.003,0.0173 -0.0082,0.20567 -0.01463,0.56534 4.57e-4,0.24868 -0.0059,0.41278 -0.01986,0.49336 -0.0099,0.0575 -0.04475,0.0958 -0.104563,0.11501 -0.05471,0.026 -0.115128,0.0303 -0.181135,0.0128 1.8e-5,-2e-5 3.6e-5,-4e-5 5.4e-5,-5e-5 z m 2.56603,-0.50066 c -0.06895,0.39048 -0.121442,0.70895 -0.157456,0.95707 -0.0477,0.32863 -0.07585,0.63043 -0.08403,0.90589 -0.0026,0.10558 -0.0068,0.17846 -0.0126,0.21885 -0.01331,0.0922 -0.04631,0.16693 -0.09915,0.22404 -0.05367,0.0629 -0.121152,0.0884 -0.202265,0.0765 -0.112329,-0.0165 -0.169058,-0.0633 -0.170287,-0.14001 0.0084,-0.0982 0.02204,-0.25358 0.04079,-0.46212 0.02407,-0.20255 0.05173,-0.40749 0.08291,-0.61486 0.06372,-0.40275 0.127385,-0.80551 0.191007,-1.20828 -0.03036,-0.005 -0.08808,-0.0102 -0.173771,-0.0172 -0.07954,-0.006 -0.158638,-0.0152 -0.237253,-0.0274 -0.145266,-0.0225 -0.202614,-0.12909 -0.17255,-0.31893 0.02187,-0.13811 0.06889,-0.20142 0.140945,-0.19012 0.02413,0.004 0.09331,0.0323 0.208361,0.0854 0.114963,0.053 0.214765,0.0858 0.299058,0.0985 0.119339,-0.81555 0.238773,-1.63108 0.358302,-2.4466 -0.0463,-0.0131 -0.140174,-0.036 -0.284676,-0.07 -0.143034,-0.0398 -0.246319,-0.0857 -0.309754,-0.13699 -0.05764,-0.0505 -0.08039,-0.11315 -0.06845,-0.18792 0.0239,-0.14958 0.06479,-0.21971 0.122679,-0.21049 0.0637,0.0102 0.138179,0.0455 0.223766,0.10602 0.01029,0.007 0.04315,0.0307 0.09636,0.068 0.05445,0.032 0.133095,0.0618 0.235865,0.0891 0.04873,-0.0869 0.09009,-0.14545 0.124224,-0.17568 0.03992,-0.0293 0.106147,-0.0371 0.198784,-0.0234 0.115767,0.0171 0.170382,0.0484 0.163711,0.0946 -0.0025,0.0173 -0.01577,0.0478 -0.03986,0.0913 -0.02325,0.0378 -0.03782,0.0769 -0.04368,0.11724 0.353118,0.10445 0.744948,0.26767 1.180401,0.48815 0.44183,0.21535 0.817193,0.46173 1.12653,0.7424 0.315114,0.28122 0.460435,0.5649 0.430146,0.85465 -0.04292,0.41056 -0.351636,0.70215 -0.934225,0.86347 -0.581382,0.16099 -1.329094,0.21542 -2.233951,0.14922 3.8e-5,-1.4e-4 7.7e-5,-2.8e-4 1.15e-4,-4.2e-4 z m 0.365895,-2.77189 c -0.0369,0.33574 -0.09255,0.78138 -0.166823,1.33533 -0.07358,0.54945 -0.122867,0.91103 -0.148905,1.09072 0.361572,0.0523 0.754033,0.0625 1.175187,0.0289 0.42187,-0.0393 0.780202,-0.11955 1.07392,-0.23792 0.300544,-0.12352 0.459729,-0.27938 0.480055,-0.46439 0.02672,-0.24321 -0.09241,-0.47835 -0.353475,-0.70784 -0.261131,-0.22953 -0.582908,-0.43257 -0.965441,-0.61156 -0.376713,-0.17824 -0.740818,-0.32279 -1.094469,-0.43323 -1.6e-5,0 -3.2e-5,-1e-5 -4.9e-5,-1e-5 z m 6.959697,2.07135 c -0.0047,0.10421 -0.09593,0.33163 -0.276577,0.67809 -0.174807,0.34718 -0.435653,0.66351 -0.785083,0.94611 -0.343192,0.28289 -0.758511,0.40769 -1.239671,0.37093 -0.394752,-0.0302 -0.715073,-0.17457 -0.957691,-0.43014 -0.242965,-0.25593 -0.339128,-0.62471 -0.29334,-1.10585 0.04303,-0.45217 0.194091,-0.88776 0.447363,-1.30908 0.253761,-0.42706 0.561162,-0.76568 0.921609,-1.01762 0.36107,-0.25786 0.718505,-0.37548 1.078489,-0.35293 0.214836,0.0135 0.391831,0.0731 0.531928,0.17991 0.146145,0.10123 0.215146,0.24171 0.205806,0.42206 -0.01054,0.20345 -0.137975,0.39568 -0.385249,0.5742 -0.241264,0.17878 -0.554274,0.3292 -0.939066,0.44815 -0.384842,0.11896 -0.78084,0.19318 -1.186096,0.22228 -0.09476,0.26062 -0.154006,0.51832 -0.176557,0.77353 -0.02973,0.33642 0.02875,0.60453 0.177741,0.80432 0.154931,0.2001 0.38951,0.3131 0.702127,0.33657 0.472091,0.0354 0.866773,-0.10006 1.178117,-0.40252 0.311489,-0.30259 0.572498,-0.65064 0.784134,-1.04292 0.01309,-0.0226 0.03631,-0.0654 0.06928,-0.12791 0.03329,-0.0684 0.06184,-0.10209 0.08579,-0.10099 0.0419,0.002 0.0609,0.0465 0.05696,0.13381 -4e-6,0 -8e-6,0 -1.1e-5,0 z m -1.232588,-1.86973 c -0.221799,-0.0143 -0.439559,0.0436 -0.655198,0.17359 -0.215613,0.13001 -0.402526,0.29045 -0.560605,0.482 -0.152245,0.19211 -0.25639,0.36415 -0.3114,0.51732 0.275626,-0.006 0.56996,-0.0581 0.881028,-0.15794 0.311034,-0.0999 0.571228,-0.21717 0.780607,-0.35005 0.215277,-0.13251 0.324748,-0.24629 0.330105,-0.33916 0.0054,-0.0931 -0.04027,-0.16851 -0.136483,-0.22672 -0.0904,-0.0579 -0.199639,-0.0908 -0.328054,-0.099 z m 6.370598,4.29207 c -0.40609,0.0138 -0.729635,-0.0112 -0.967778,-0.071 -0.238416,-0.0541 -0.357721,-0.13768 -0.359126,-0.24839 -7.41e-4,-0.0584 0.04161,-0.15507 0.1263,-0.29069 0.09076,-0.14144 0.160321,-0.21272 0.209658,-0.21362 0.07399,-0.001 0.111302,0.0124 0.111892,0.0417 3.53e-4,0.0175 -0.01158,0.0382 -0.03583,0.062 -0.01808,0.0237 -0.02691,0.0472 -0.02647,0.0705 3.35e-4,0.0175 0.03793,0.0431 0.112976,0.0766 0.08116,0.0333 0.202882,0.0628 0.364839,0.0876 0.161955,0.0249 0.35808,0.0336 0.587582,0.0253 0.366094,-0.0133 0.682918,-0.0953 0.94779,-0.24355 0.271127,-0.14861 0.473464,-0.33052 0.607643,-0.54362 0.134196,-0.21313 0.193778,-0.41624 0.181022,-0.60839 -0.01664,-0.2506 -0.158133,-0.45724 -0.420847,-0.6227 -0.25753,-0.16635 -0.663227,-0.3148 -1.218076,-0.45654 -0.533973,-0.1474 -0.951197,-0.27964 -1.240527,-0.3842 -0.28602,-0.1114 -0.517572,-0.24921 -0.694771,-0.41139 -0.118557,-0.11238 -0.197091,-0.24099 -0.236239,-0.38536 0,0 0,0 0,0 0,0 0,-1e-5 0,-1e-5 0,0 0,0 0,0 0,0 0,0 0,0 0,0 0,0 0,0 0,0 0,0 0,0 -0.01947,-0.0715 -0.02924,-0.14692 -0.02942,-0.22622 -1.64e-4,-0.074 0.0093,-0.1477 0.02822,-0.22117 0,0 0,0 0,0 0.06302,-0.24531 0.231312,-0.48693 0.501145,-0.72824 0.350614,-0.31946 0.778462,-0.58163 1.284329,-0.79216 0.50582,-0.21644 0.972552,-0.33913 1.409314,-0.36571 0.223775,-0.0136 0.347205,0.0244 0.37034,0.11664 0.0231,0.0921 0.03866,0.19634 0.04656,0.31282 0.0059,0.0874 -0.02218,0.13319 -0.08442,0.13731 -0.02827,0.002 -0.06279,-0.005 -0.103474,-0.0196 -0.03541,-0.0211 -0.06758,-0.0366 -0.09655,-0.0465 -0.03462,-0.01 -0.07485,-0.0187 -0.120723,-0.0276 -0.04588,-0.009 -0.111081,-0.0109 -0.195764,-0.006 -0.293785,0.0168 -0.64151,0.11328 -1.049833,0.2866 -0.408163,0.17326 -0.764746,0.378 -1.070116,0.61724 -0.299635,0.23913 -0.451174,0.46487 -0.448927,0.68083 0.0018,0.17508 0.07309,0.32621 0.215337,0.45265 0.148012,0.12629 0.3437,0.23397 0.587134,0.32149 0.241392,0.081 0.59013,0.18355 1.037299,0.29862 0.659031,0.15958 1.151294,0.33838 1.478051,0.55124 0.331694,0.21181 0.51315,0.48449 0.538368,0.82231 0.02173,0.29108 -0.05966,0.58721 -0.248722,0.88709 -0.183277,0.29356 -0.459316,0.54015 -0.82905,0.73594 -0.363073,0.20119 -0.787741,0.31183 -1.269144,0.32824 1e-6,-2e-5 3e-6,-3e-5 5e-6,-5e-5 z m 4.374064,-0.5344 c -0.415382,0.0441 -0.733361,-0.0349 -0.95033,-0.23194 -0.217114,-0.19716 -0.337917,-0.45656 -0.365424,-0.77646 -0.02404,-0.27959 -0.0018,-0.62932 0.06344,-1.05158 0.07119,-0.42232 0.185885,-0.80515 0.342383,-1.14852 0.01,-0.0256 0.04793,-0.1119 0.11595,-0.26646 0.07275,-0.1597 0.157289,-0.28265 0.253965,-0.36898 0.09609,-0.0921 0.201718,-0.14447 0.317532,-0.15717 0.05212,-0.006 0.100036,0.004 0.143844,0.0281 0.04895,0.018 0.07576,0.0472 0.08037,0.0879 0.0013,0.0116 -0.01279,0.0426 -0.04243,0.093 -0.02447,0.0438 -0.04425,0.0784 -0.0591,0.10352 -0.171547,0.25994 -0.30805,0.5119 -0.408104,0.75699 -0.13478,0.31318 -0.237005,0.61928 -0.305021,0.9191 -0.06199,0.29909 -0.07796,0.62027 -0.04585,0.96314 0.04291,0.45808 0.358762,0.66343 0.951013,0.59919 0.276857,-0.03 0.523647,-0.13505 0.737919,-0.31393 0.220428,-0.17965 0.385939,-0.38632 0.497212,-0.61871 0.110492,-0.23813 0.152503,-0.44729 0.128409,-0.62652 -0.02722,-0.20251 -0.119805,-0.36963 -0.276109,-0.5022 -0.156477,-0.13272 -0.363253,-0.2678 -0.619759,-0.40736 -0.166581,-0.0915 -0.289134,-0.16858 -0.367529,-0.22993 -0.07854,-0.0615 -0.120276,-0.11556 -0.125534,-0.16194 -0.0079,-0.0696 0.03567,-0.1303 0.130263,-0.18239 0.09394,-0.058 0.207801,-0.0949 0.341912,-0.11131 0.07582,-0.009 0.126045,-0.01 0.150833,-9.8e-4 0.02406,0.003 0.03755,0.0161 0.04044,0.0391 0.0015,0.0116 -0.0077,0.0333 -0.02742,0.0652 -0.01463,0.0253 -0.02088,0.0467 -0.01872,0.0641 0.0022,0.0174 0.06773,0.0682 0.197545,0.15167 0.258926,0.16124 0.482135,0.32845 0.668967,0.5031 0.186786,0.17461 0.300206,0.39418 0.337971,0.66003 0.03199,0.22518 -0.01764,0.49811 -0.152891,0.8171 -0.135288,0.31911 -0.351753,0.60751 -0.651126,0.86261 -0.300016,0.24922 -0.663095,0.39784 -1.084605,0.44259 -3e-6,-2e-5 -7e-6,-4e-5 -1.1e-5,-5e-5 z m 3.391942,-0.56277 c -0.07368,0.012 -0.157466,-0.0572 -0.250548,-0.20784 -0.08798,-0.15755 -0.157869,-0.40324 -0.210779,-0.73781 -0.09751,-0.65618 -0.211992,-1.43714 -0.347273,-2.36511 -0.129465,-0.92923 -0.224844,-1.61796 -0.28864,-2.09071 -0.02103,-0.16805 -0.01795,-0.32815 0.0087,-0.48021 0.03222,-0.15299 0.114267,-0.24009 0.246516,-0.26204 0.04409,-0.007 0.076,0.014 0.09573,0.0639 0.02427,0.0432 0.0481,0.13397 0.07136,0.27211 9.95e-4,0.006 0.0016,0.0265 0.0018,0.0619 0.0048,0.0288 0.01404,0.0835 0.02759,0.16404 0.154446,1.53152 0.344148,3.01587 0.582369,4.45642 0.03047,0.18423 0.105029,0.37318 0.224896,0.56612 0.125969,0.19194 0.190617,0.29339 0.192573,0.3049 0.0098,0.0575 -0.02215,0.11034 -0.09605,0.1583 -0.07389,0.0479 -0.160051,0.08 -0.25829,0.096 1.7e-5,1e-5 3.3e-5,1e-5 4.9e-5,2e-5 z m 2.407071,-0.3361 c -0.4092,0.0838 -0.73326,0.0357 -0.96807,-0.13959 -0.23496,-0.17538 -0.38002,-0.42195 -0.43801,-0.73767 -0.05069,-0.27593 -0.06206,-0.6261 -0.0375,-1.05255 0.0304,-0.42708 0.10787,-0.81901 0.23067,-1.17565 0.007,-0.0264 0.037,-0.11592 0.0898,-0.27624 0.0571,-0.16586 0.12938,-0.29629 0.21727,-0.39143 0.0867,-0.10087 0.1868,-0.16304 0.30078,-0.18675 0.0513,-0.0107 0.0998,-0.006 0.14577,0.0142 0.0504,0.0132 0.0799,0.0398 0.0883,0.0797 0.002,0.0114 -0.009,0.0436 -0.0333,0.0966 -0.0201,0.046 -0.0365,0.0823 -0.0488,0.10865 -0.14569,0.27506 -0.25732,0.53883 -0.33337,0.79228 -0.10407,0.32453 -0.17646,0.63891 -0.21541,0.94377 -0.033,0.30355 -0.0182,0.62469 0.0466,0.96281 0.0866,0.45173 0.42058,0.62581 1.00386,0.50501 0.27265,-0.0565 0.50819,-0.18469 0.70424,-0.38327 0.20211,-0.19994 0.34695,-0.42149 0.43533,-0.6634 0.0871,-0.24755 0.10873,-0.45969 0.0675,-0.63569 -0.0466,-0.19885 -0.15475,-0.35622 -0.32299,-0.47309 -0.16842,-0.11702 -0.3871,-0.23155 -0.65567,-0.3458 -0.17449,-0.075 -0.30381,-0.14002 -0.38769,-0.19354 -0.084,-0.0536 -0.13074,-0.10346 -0.14042,-0.14911 -0.0145,-0.0685 0.023,-0.13306 0.11207,-0.19395 0.0879,-0.0667 0.19759,-0.11435 0.32941,-0.1435 0.0745,-0.0165 0.12443,-0.0217 0.14992,-0.0154 0.0242,7.3e-4 0.0389,0.0124 0.0439,0.035 0.003,0.0114 -0.004,0.0339 -0.021,0.0675 -0.0121,0.0266 -0.0163,0.0485 -0.0125,0.0656 0.004,0.0171 0.0739,0.0613 0.21106,0.13194 0.27305,0.13558 0.51116,0.28049 0.71381,0.43629 0.2026,0.15575 0.33657,0.36327 0.39974,0.62413 0.0535,0.22093 0.0304,0.49725 -0.0735,0.82763 -0.10392,0.3305 -0.29159,0.63829 -0.56503,0.9209 -0.27463,0.27684 -0.62174,0.45964 -1.03698,0.54466 0,-2e-5 0,-4e-5 0,-6e-5 z m 11.3509,-3.86867 c -0.0684,0.0293 -0.12383,0.0496 -0.16611,0.061 -0.0445,0.006 -0.0833,-0.006 -0.11622,-0.0363 -0.0853,-0.0588 -0.24613,-0.27282 -0.48022,-0.64248 -0.2342,-0.36982 -0.48869,-0.80053 -0.76331,-1.29274 -0.78542,-1.5238 -1.20991,-2.29201 -1.29134,-2.29663 -0.005,0.15449 0.005,0.43382 0.028,0.84701 0.0204,0.40786 0.0635,0.93045 0.12552,1.57754 0.0621,0.69317 0.0868,1.18509 0.082,1.45907 -0.007,0.27097 -0.0381,0.44805 -0.0919,0.53057 -0.0314,0.0554 -0.0743,0.11515 -0.12901,0.17907 -0.0509,0.0563 -0.0995,0.0929 -0.14554,0.10992 -0.0575,0.0212 -0.0969,0.0295 -0.11825,0.0249 -0.0233,-0.0101 -0.0595,-0.0465 -0.10851,-0.1093 -0.0518,-0.0721 -0.20187,-0.31008 -0.44074,-0.70522 -0.2417,-0.402 -0.44629,-0.76926 -0.61436,-1.09887 -0.0579,-0.10933 -0.11574,-0.21871 -0.17345,-0.32814 -0.34918,-0.6815 -0.5502,-1.05645 -0.61251,-1.12844 -0.0696,0.12962 -0.0938,0.37282 -0.0743,0.73012 0.0176,0.35261 0.0665,0.84294 0.14325,1.47663 0.0375,0.50127 0.1436,1.29049 0.30977,2.38704 0.0141,0.0629 -0.0118,0.13292 -0.0779,0.20987 -0.0663,0.077 -0.13225,0.12606 -0.19738,0.14715 -0.0948,0.0307 -0.17576,-0.0383 -0.24273,-0.20672 -0.062,-0.17222 -0.22119,-0.52702 -0.47923,-1.07752 -0.25248,-0.5525 -0.47206,-1.03179 -0.66577,-1.4502 -0.27285,-0.59254 -0.55758,-1.1336 -0.85157,-1.62257 -0.0896,-0.15531 -0.1378,-0.24465 -0.14459,-0.26678 -0.0256,-0.0837 -0.008,-0.16218 0.0522,-0.2357 0.064,-0.0807 0.1417,-0.13542 0.23343,-0.16422 0.0431,-0.0136 0.1432,0.14448 0.30161,0.47359 0.15849,0.32932 0.34857,0.74572 0.5718,1.25009 0.0378,0.089 0.0756,0.17788 0.1134,0.2668 0.0812,0.17601 0.16824,0.35946 0.26103,0.5501 0.38436,0.82031 0.61482,1.3204 0.69937,1.53884 -0.0935,-0.6812 -0.1774,-1.36871 -0.25355,-2.06273 -0.0155,-0.1301 -0.0311,-0.26017 -0.0469,-0.3902 -0.0743,-0.62689 -0.0936,-1.11337 -0.0555,-1.4593 0.0363,-0.35168 0.16244,-0.56522 0.38127,-0.64311 0.0694,-0.0247 0.21327,0.13438 0.43431,0.47613 0.21889,0.33601 0.44399,0.74174 0.67388,1.21614 0.16689,0.33635 0.34254,0.66003 0.52758,0.9709 0.18499,0.31078 0.32823,0.52211 0.42826,0.63408 -5e-4,-0.10315 -0.009,-0.33838 -0.0268,-0.69051 -0.0126,-0.35652 -0.0296,-0.69354 -0.05,-1.01028 -0.0787,-1.0121 -0.11967,-1.93354 -0.12056,-2.76231 0.006,-0.13455 0.0228,-0.23554 0.0497,-0.30311 0.0298,-0.075 0.10666,-0.13773 0.23047,-0.18884 0.067,-0.0277 0.2659,0.24963 0.60094,0.82999 0.33467,0.57971 0.70077,1.26225 1.09565,2.04403 0.62891,1.07613 1.03429,1.63512 1.20248,1.68313 0.11478,0.033 0.1898,0.0893 0.2247,0.1695 0.0163,0.0374 9.1e-4,0.095 -0.0465,0.17269 -0.044,0.0698 -0.10602,0.12193 -0.18585,0.15608 0,8e-5 0,1.6e-4 0,2.3e-4 z m -0.81664,-5.20491 c -0.0873,0.04 -0.19433,0.0438 -0.32037,0.0111 -0.12088,-0.035 -0.19186,-0.0768 -0.21328,-0.1247 -0.0262,-0.0585 -0.0256,-0.12588 0.002,-0.202 0.0322,-0.0785 0.0762,-0.13032 0.13211,-0.15573 0.0883,-0.008 0.17125,0.005 0.24888,0.0402 0.0602,0.0237 0.13153,0.0582 0.21439,0.10346 0.0829,0.0452 0.12805,0.0756 0.13544,0.0915 0.0368,0.0792 -0.0291,0.15846 -0.19872,0.23614 z m 2.56303,4.92479 c -0.082,0.0314 -0.19662,-0.0603 -0.34315,-0.27517 -0.14082,-0.21742 -0.38056,-0.64361 -0.71703,-1.27819 -0.21822,-0.41949 -0.42841,-0.83009 -0.6306,-1.23128 -0.20416,-0.40561 -0.36048,-0.7212 -0.46661,-0.94081 -0.0265,-0.0584 -0.0379,-0.10445 -0.0343,-0.13816 0.007,-0.0414 0.036,-0.074 0.0884,-0.0981 0.1205,-0.0552 0.21957,-0.0402 0.29768,0.0457 0.078,0.0858 0.18368,0.27169 0.31636,0.55708 0.14232,0.31324 0.28458,0.62651 0.42679,0.9398 0.24844,0.53459 0.46331,0.95438 0.64708,1.26179 0.007,0.0159 0.11095,0.17351 0.31203,0.47214 0.14311,0.20374 0.23203,0.34178 0.26681,0.41594 0.0248,0.0528 0.0179,0.10434 -0.0207,0.15454 -0.0305,0.0528 -0.0782,0.0911 -0.14305,0.11481 7e-5,-6e-5 1.5e-4,-1.1e-4 2.2e-4,-1.7e-4 z m 3.4936,-1.99568 c -0.10926,0.0603 -0.32913,0.0179 -0.65576,-0.13056 -0.3222,-0.15571 -0.74497,-0.37979 -1.25218,-0.67248 -0.0592,-0.0349 -0.11837,-0.0698 -0.17743,-0.10487 -0.0103,0.24308 -0.018,0.44508 -0.022,0.61205 -0.001,0.15795 0.005,0.33159 0.0185,0.52101 0.0172,0.30576 0.0359,0.48128 0.0598,0.5286 0.0367,0.0729 0.094,0.0899 0.17165,0.0505 0.0167,-0.008 0.0378,-0.0355 0.0633,-0.0812 0.0255,-0.0457 0.0466,-0.0728 0.0632,-0.0813 0.0277,-0.0141 0.0565,-0.0191 0.0866,-0.0148 0.0301,0.004 0.0505,0.0168 0.0611,0.0375 0.016,0.0311 0.001,0.10436 -0.045,0.21959 -0.0462,0.11524 -0.10799,0.22833 -0.1854,0.33908 -0.0718,0.10793 -0.13897,0.17726 -0.2007,0.20794 -0.0449,0.0223 -0.1024,0.005 -0.17228,-0.0513 -0.0673,-0.0513 -0.12013,-0.11631 -0.15884,-0.19477 -0.0698,-0.14148 -0.10471,-0.36738 -0.10818,-0.67861 -5.9e-4,-0.32723 0.009,-0.75591 0.0226,-1.33442 0.004,-0.0973 0.009,-0.1945 0.0125,-0.29168 -0.22346,-0.16942 -0.50675,-0.37339 -0.85834,-0.62303 -0.34744,-0.25645 -0.6404,-0.4615 -0.8841,-0.61505 -0.14489,-0.0977 -0.24766,-0.20982 -0.30911,-0.33553 -0.0256,-0.0524 -0.0384,-0.0916 -0.0384,-0.11759 0.005,-0.0285 0.0206,-0.0491 0.0463,-0.0617 0.0463,-0.0227 0.10792,-0.0206 0.18521,0.006 0.0747,0.0216 0.17908,0.0771 0.31394,0.16621 0.42107,0.26024 0.93542,0.62752 1.55826,1.10033 7.1e-4,-0.015 0.0107,-0.21462 0.0192,-0.40512 0.0103,-0.3746 0.0268,-0.72377 0.0504,-1.04809 0.0245,-0.21229 0.0498,-0.35864 0.0777,-0.44055 0.0329,-0.0845 0.10232,-0.15574 0.20828,-0.21441 0.14623,-0.081 0.24193,-0.0814 0.28754,1.7e-4 0.0114,0.0204 0.0138,0.0424 0.007,0.0662 -0.009,0.0186 -0.0336,0.0589 -0.0722,0.12043 -0.0365,0.0537 -0.0671,0.12407 -0.0922,0.21119 -0.0389,0.13549 -0.0711,0.39474 -0.10247,0.78377 -0.0341,0.38305 -0.0563,0.77154 -0.0663,1.16544 0.23058,0.15564 0.48259,0.30296 0.75638,0.4409 0.2762,0.12983 0.51679,0.2321 0.719,0.30754 0.20505,0.0675 0.32444,0.0914 0.35685,0.0735 0.0756,-0.0418 0.10088,-0.14272 0.0752,-0.30217 -0.009,-0.0417 -0.0171,-0.0874 -0.0238,-0.1371 -0.001,-0.0527 0.0113,-0.0865 0.038,-0.10151 0.0641,-0.036 0.11188,-0.0261 0.14344,0.0298 0.0372,0.066 0.0692,0.17885 0.0951,0.33826 0.0259,0.1595 0.0362,0.31094 0.0306,0.45432 -0.008,0.13827 -0.0429,0.22414 -0.10301,0.25731 -1e-5,-4e-5 -1e-5,-8e-5 -2e-5,-1.1e-4 z"
         id="text1"
         style="font-size:8.75514px;line-height:1.1;font-family:'Ink Free';-inkscape-font-specification:'Ink Free';text-align:center;text-anchor:middle;fill:#1a1a1a;stroke-width:12.4089;stroke-linecap:square;stroke-miterlimit:1.6"
         aria-label="Bagpipe Solo Mix"
         inkscape:path-effect="#path-effect1"
         inkscape:original-d="m 60.350993,141.1048 q -0.393982,0.39398 -0.928045,0.77045 -0.350206,0.24515 -0.691656,0.42025 -0.332696,0.1751 -0.507798,0.1751 -0.08755,0 -0.157593,-0.0525 -0.06129,-0.0438 -0.06129,-0.14008 0,-0.14008 0.105062,-0.24514 0.105061,-0.0963 0.280164,-0.1576 0.08755,-0.035 0.245144,-0.07 0.201368,-0.035 0.358961,-0.11382 0.297675,-0.14883 0.691656,-0.45526 0.402737,-0.31519 0.63037,-0.56033 0.376471,-0.40274 0.569084,-0.70917 0.201369,-0.31518 0.201369,-0.64788 0,-0.18386 -0.175103,-0.26265 -0.175103,-0.0875 -0.429002,-0.0875 -0.647881,0 -1.181944,0.22763 -0.236389,0.10506 -0.32394,0.14884 -0.315185,0.14008 -0.516554,0.21888 -0.227633,0.0876 -0.437757,0.15759 -0.210123,0.0613 -0.280164,0.0876 l 0.01751,0.3327 q 0,0.13132 0.0088,0.42024 0.01751,0.28892 0.01751,0.54282 0,0.60411 -0.08755,0.98058 -0.03502,0.12257 -0.0788,0.1751 -0.04378,0.0525 -0.166348,0.0525 -0.0788,0 -0.148837,-0.0525 -0.07004,-0.0525 -0.07004,-0.13133 0,-0.0263 0.0788,-0.29767 0.0788,-0.27141 0.0788,-0.48154 0,-0.6829 -0.06129,-1.74227 l -0.02627,-0.40273 q -0.05253,-0.57784 -0.05253,-0.91054 0,-0.2539 0.03502,-0.63912 0.03502,-0.39399 0.05253,-0.51656 -0.332695,0.0875 -0.849248,0.31519 -0.148838,0.0613 -0.385226,0.21888 -0.218879,0.14008 -0.297675,0.14008 -0.07004,0 -0.122572,-0.0613 -0.05253,-0.0613 -0.05253,-0.14884 0,-0.16634 0.586594,-0.429 0.586595,-0.26265 1.278251,-0.46402 0.621615,-0.18386 1.103148,-0.27141 0.481532,-0.0875 0.989331,-0.0875 0.464022,0 0.770452,0.18386 0.315185,0.1751 0.315185,0.49904 0,0.77045 -0.840494,1.59344 0.376471,-0.0525 0.682901,-0.0525 0.402737,0 0.691656,0.16635 0.28892,0.16635 0.28892,0.56033 0,0.42025 -0.30643,0.84925 -0.30643,0.42025 -0.840493,0.95431 z m -0.831739,-4.38632 q -0.35896,0 -0.901779,0.0875 -0.542819,0.0788 -0.840494,0.1751 -0.148837,0.59535 -0.148837,0.99809 0,0.56908 0.05253,1.43584 0.08755,-0.009 0.280164,-0.07 0.201369,-0.0613 0.367716,-0.13133 0.831739,-0.35021 1.383312,-0.91053 0.551574,-0.56033 0.551574,-1.15568 0,-0.21013 -0.201368,-0.31519 -0.201368,-0.11381 -0.542819,-0.11381 z m 6.56636,4.97291 q 0,0.10507 -0.08755,0.24515 -0.08755,0.13133 -0.175103,0.13133 -0.148837,0 -0.227634,-0.18386 -0.0788,-0.18386 -0.0788,-0.429 0,-0.21013 0.02626,-1.26074 l 0.0088,-0.3327 q 0,-0.20137 -0.105062,-0.28892 -0.393981,0.66539 -0.735432,1.15568 -0.34145,0.49029 -0.866759,0.92804 -0.525308,0.42901 -1.103147,0.42901 -0.280165,0 -0.437757,-0.17511 -0.148838,-0.1751 -0.148838,-0.45526 0,-0.35021 0.315185,-0.95431 0.315185,-0.61286 0.805473,-1.23448 0.490288,-0.63037 0.980576,-1.03311 0.32394,-0.26265 0.516553,-0.3502 0.192613,-0.0963 0.341451,-0.0963 0.140082,0 0.288919,0.0875 0.148838,0.0876 0.253899,0.24515 0.105062,0.15759 0.105062,0.35896 0,0.27141 -0.148837,0.51655 l 0.148837,-0.0438 q 0.09631,0 0.113817,0.23638 0.0088,0.14009 0.01751,0.56909 0.01751,0.429 0.02627,0.70917 0.0088,0.28891 0.01751,0.56032 0.0088,0.27141 0.01751,0.42901 0.0088,0.0613 0.07004,0.13132 0.06129,0.0613 0.06129,0.10506 z m -0.761697,-2.46019 q 0.105062,-0.26265 0.105062,-0.56908 0,-0.18386 -0.113817,-0.31519 -0.105062,-0.14008 -0.28892,-0.14008 -0.218878,0 -0.560329,0.29767 -0.393981,0.3327 -0.831738,0.89303 -0.437757,0.55157 -0.726677,1.09439 -0.288919,0.54282 -0.288919,0.858 0,0.26266 0.245144,0.26266 0.472777,0 0.910534,-0.35021 0.437757,-0.3502 0.779208,-0.83174 0.350205,-0.49028 0.770452,-1.19945 z m 4.622708,4.85035 q -0.376471,0.35896 -0.787962,0.57784 -0.402737,0.22763 -0.700411,0.22763 -0.166348,0 -0.236389,-0.0875 -0.07004,-0.0788 -0.07004,-0.19261 0,-0.10507 0.393981,-0.24515 0.595349,-0.19261 1.103148,-0.64788 0.393981,-0.3502 0.577839,-0.79672 0.183858,-0.44651 0.183858,-0.91053 0,-0.52531 -0.07004,-0.96307 -0.06129,-0.43775 -0.201369,-1.07688 -0.157592,-0.67414 -0.218878,-1.14692 -0.148837,0.40274 -0.464022,0.97182 -0.30643,0.56908 -0.735432,1.09439 -0.402737,0.49904 -0.735432,0.74419 -0.32394,0.24514 -0.63037,0.24514 -0.262654,0 -0.393981,-0.20137 -0.122572,-0.21012 -0.122572,-0.56908 0,-0.59535 0.367715,-1.40082 0.367716,-0.80547 0.91929,-1.38331 0.551574,-0.57784 1.085638,-0.57784 0.183858,0 0.280164,0.13132 0.105062,0.13133 0.105062,0.31519 0,0.23639 -0.09631,0.23639 -0.02626,0 -0.07004,-0.0613 -0.03502,-0.07 -0.08755,-0.12257 -0.05253,-0.0525 -0.113817,-0.0525 -0.446512,0 -0.910535,0.49904 -0.455267,0.49904 -0.761697,1.17319 -0.297675,0.66539 -0.297675,1.09439 0,0.23639 0.06129,0.34145 0.07004,0.10507 0.210124,0.10507 0.210123,0 0.507798,-0.24515 0.297675,-0.24514 0.709166,-0.77045 0.367716,-0.46402 0.665391,-1.07688 0.30643,-0.62162 0.464022,-1.18195 0.01751,-0.0525 0.05253,-0.0875 0.04378,-0.035 0.09631,-0.035 0.0788,0 0.157592,0.0525 0.08755,0.0438 0.08755,0.0963 0,0.035 -0.01751,0.0788 -0.0088,0.035 -0.01751,0.0438 0.06129,0.48153 0.28892,1.49713 0.166347,0.71792 0.245144,1.20821 0.08755,0.48153 0.08755,0.94555 0,0.6829 -0.271409,1.24323 -0.27141,0.56033 -0.639126,0.91054 z m 2.731602,-2.76663 q -0.01751,0.59535 -0.01751,0.97182 0,0.49905 0.04378,0.91054 0.01751,0.15759 0.01751,0.21888 0,0.14008 -0.06129,0.23639 -0.06129,0.10506 -0.175103,0.10506 -0.157592,0 -0.175103,-0.11382 -0.0088,-0.14884 -0.02627,-0.46402 -0.0088,-0.30643 -0.0088,-0.62162 l 0.0088,-1.22572 q -0.04378,0 -0.166348,0.009 -0.113817,0.009 -0.227633,0.009 -0.210124,0 -0.210124,-0.28892 0,-0.21012 0.105062,-0.21012 0.03502,0 0.210123,0.0525 0.175103,0.0525 0.297675,0.0525 l -0.0088,-2.4777 q -0.07004,-0.009 -0.28892,-0.0263 -0.218878,-0.0263 -0.32394,-0.0875 -0.09631,-0.0613 -0.09631,-0.1751 0,-0.22763 0.08755,-0.22763 0.09631,0 0.236389,0.07 0.01751,0.009 0.105061,0.0525 0.08755,0.035 0.245144,0.0525 0.05253,-0.14008 0.09631,-0.19262 0.05253,-0.0525 0.192613,-0.0525 0.175103,0 0.175103,0.0701 0,0.0263 -0.02627,0.0963 -0.02626,0.0613 -0.02626,0.12257 0.542819,0.0788 1.22572,0.32394 0.691656,0.23639 1.190699,0.60411 0.507798,0.36771 0.507798,0.80547 0,0.62162 -0.805473,0.96307 -0.805473,0.34145 -2.101234,0.43775 z m -0.03502,-2.80164 q 0.01751,0.5078 0.02626,1.34829 0.0088,0.83174 0.0088,1.10315 0.525309,0 1.120658,-0.13133 0.59535,-0.14008 0.998086,-0.36771 0.411492,-0.23639 0.411492,-0.51656 0,-0.36771 -0.420247,-0.66539 -0.420247,-0.29767 -1.015596,-0.49029 -0.586595,-0.19261 -1.129413,-0.28016 z m 3.913547,-1.84734 q -0.148837,0 -0.30643,-0.12257 -0.148837,-0.12257 -0.148837,-0.20137 0,-0.0963 0.08755,-0.18385 0.09631,-0.0876 0.192614,-0.0876 0.131327,0.0438 0.218878,0.14009 0.07004,0.07 0.157593,0.18386 0.08755,0.11381 0.08755,0.14008 0,0.13132 -0.28892,0.13132 z m 0.262655,5.55076 q -0.122572,-0.009 -0.183858,-0.39398 -0.05253,-0.38522 -0.113817,-1.46211 -0.03502,-0.70916 -0.06129,-1.38331 -0.02627,-0.6829 -0.03502,-1.05062 0,-0.0963 0.02627,-0.14008 0.03502,-0.0525 0.122572,-0.0525 0.201368,0 0.253899,0.16635 0.05253,0.16635 0.05253,0.63912 l -0.0088,1.03311 q 0,0.88427 0.05253,1.41833 0,0.0263 0.0788,0.56033 0.06129,0.36772 0.06129,0.49029 0,0.0876 -0.0788,0.13133 -0.07004,0.0525 -0.166347,0.0438 z m 2.328871,-0.90178 q -0.01751,0.59535 -0.01751,0.97182 0,0.49905 0.04377,0.91054 0.01751,0.15759 0.01751,0.21888 0,0.14008 -0.06129,0.23639 -0.06129,0.10506 -0.175103,0.10506 -0.157593,0 -0.175103,-0.11382 -0.0088,-0.14884 -0.02626,-0.46402 -0.0088,-0.30643 -0.0088,-0.62162 l 0.0088,-1.22572 q -0.04378,0 -0.166348,0.009 -0.113817,0.009 -0.227634,0.009 -0.210123,0 -0.210123,-0.28892 0,-0.21012 0.105062,-0.21012 0.03502,0 0.210123,0.0525 0.175103,0.0525 0.297675,0.0525 l -0.0088,-2.4777 q -0.07004,-0.009 -0.28892,-0.0263 -0.218879,-0.0263 -0.32394,-0.0875 -0.09631,-0.0613 -0.09631,-0.1751 0,-0.22763 0.08755,-0.22763 0.09631,0 0.236388,0.07 0.01751,0.009 0.105062,0.0525 0.08755,0.035 0.245144,0.0525 0.05253,-0.14008 0.09631,-0.19262 0.05253,-0.0525 0.192613,-0.0525 0.175102,0 0.175102,0.0701 0,0.0263 -0.02627,0.0963 -0.02626,0.0613 -0.02626,0.12257 0.542818,0.0788 1.225719,0.32394 0.691656,0.23639 1.190699,0.60411 0.507798,0.36771 0.507798,0.80547 0,0.62162 -0.805472,0.96307 -0.805473,0.34145 -2.101234,0.43775 z m -0.03502,-2.80164 q 0.01751,0.5078 0.02627,1.34829 0.0088,0.83174 0.0088,1.10315 0.525308,0 1.120658,-0.13133 0.595349,-0.14008 0.998086,-0.36771 0.411491,-0.23639 0.411491,-0.51656 0,-0.36771 -0.420246,-0.66539 -0.420247,-0.29767 -1.015597,-0.49029 -0.586594,-0.19261 -1.129413,-0.28016 z m 6.995356,1.40082 q 0,0.15759 -0.236389,0.69166 -0.227634,0.53406 -0.700412,0.98933 -0.464022,0.45527 -1.146923,0.45527 -0.560329,0 -0.9368,-0.35021 -0.376471,-0.35021 -0.376471,-1.07688 0,-0.6829 0.315185,-1.34829 0.315185,-0.67415 0.822983,-1.0944 0.507798,-0.429 1.050617,-0.429 0.32394,0 0.542819,0.14884 0.227633,0.14008 0.227633,0.41149 0,0.30643 -0.350205,0.59535 -0.341451,0.28892 -0.893024,0.5078 -0.551574,0.21888 -1.138169,0.31518 -0.105061,0.40274 -0.105061,0.78797 0,0.50779 0.236388,0.78796 0.245144,0.28016 0.691657,0.28016 0.674145,0 1.094392,-0.48153 0.420247,-0.48153 0.700411,-1.08564 0.01751,-0.035 0.06129,-0.13132 0.04378,-0.10507 0.0788,-0.10507 0.06129,0 0.06129,0.13133 z m -1.313272,-1.80356 q -0.332695,0 -0.639125,0.21888 -0.30643,0.21888 -0.516553,0.52531 -0.201368,0.30643 -0.262654,0.54282 0.402736,-0.0438 0.849248,-0.22764 0.446513,-0.18385 0.744187,-0.40273 0.30643,-0.21888 0.30643,-0.35896 0,-0.14008 -0.148837,-0.21888 -0.140082,-0.0788 -0.332696,-0.0788 z m 6.224916,4.19371 q -0.569084,0 -0.90178,-0.0963 -0.332695,-0.0876 -0.332695,-0.2539 0,-0.0875 0.122572,-0.28892 0.131327,-0.21012 0.201368,-0.21012 0.105062,0 0.105062,0.0438 0,0.0263 -0.03502,0.0613 -0.02627,0.035 -0.02627,0.07 0,0.0263 0.105062,0.0788 0.113816,0.0525 0.34145,0.0963 0.227634,0.0438 0.551574,0.0438 0.516553,0 0.901779,-0.20137 0.393982,-0.20137 0.604105,-0.5078 0.210123,-0.30643 0.210123,-0.59535 0,-0.37647 -0.367716,-0.64788 -0.35896,-0.27141 -1.164433,-0.51655 -0.779208,-0.2539 -1.20821,-0.42025 -0.420246,-0.1751 -0.6829,-0.42025 -0.262655,-0.25389 -0.262655,-0.61286 0,-0.48153 0.542819,-0.94555 0.542819,-0.47278 1.339536,-0.7617 0.796718,-0.29767 1.479619,-0.29767 0.350206,0 0.376471,0.14008 0.02627,0.14008 0.02627,0.31518 0,0.13133 -0.09631,0.13133 -0.04378,0 -0.105062,-0.0263 -0.05253,-0.035 -0.09631,-0.0525 -0.05253,-0.0175 -0.122572,-0.035 -0.07004,-0.0175 -0.201368,-0.0175 -0.455268,0 -1.094393,0.23639 -0.639125,0.23639 -1.111903,0.5866 -0.464022,0.3502 -0.464022,0.67414 0,0.26266 0.210123,0.45527 0.218879,0.19261 0.57784,0.3327 0.35896,0.13132 1.015596,0.33269 0.963065,0.28017 1.418333,0.63037 0.464022,0.35021 0.464022,0.85801 0,0.43775 -0.297675,0.86675 -0.288919,0.42025 -0.822983,0.68291 -0.525308,0.2714 -1.199454,0.2714 z m 4.114911,-0.22763 q -0.586594,0 -0.866758,-0.32394 -0.280165,-0.32394 -0.280165,-0.80547 0,-0.42025 0.148837,-1.04186 0.157593,-0.62162 0.437757,-1.11191 0.01751,-0.035 0.140083,-0.2539 0.131327,-0.22763 0.288919,-0.34145 0.157593,-0.12257 0.332696,-0.12257 0.0788,0 0.140082,0.0438 0.07004,0.035 0.07004,0.0963 0,0.0175 -0.05253,0.0876 -0.04378,0.0613 -0.07004,0.0963 -0.297675,0.35896 -0.481533,0.70917 -0.245144,0.44651 -0.385226,0.88427 -0.131327,0.43775 -0.131327,0.95431 0,0.69165 0.840494,0.69165 0.393981,0 0.726676,-0.22763 0.341451,-0.22763 0.542819,-0.55157 0.201368,-0.3327 0.201368,-0.60411 0,-0.30643 -0.201368,-0.53406 -0.201368,-0.22764 -0.551574,-0.48153 -0.227634,-0.16635 -0.332695,-0.27141 -0.105062,-0.10507 -0.105062,-0.17511 0,-0.10506 0.148837,-0.16634 0.148838,-0.0701 0.350206,-0.0701 0.113817,0 0.148837,0.0175 0.03502,0.009 0.03502,0.0438 0,0.0175 -0.03502,0.0613 -0.02626,0.035 -0.02626,0.0613 0,0.0263 0.175103,0.17511 0.350205,0.28892 0.586594,0.58659 0.236389,0.29767 0.236389,0.70041 0,0.34145 -0.253899,0.78796 -0.253899,0.44652 -0.717922,0.77046 -0.464022,0.31518 -1.059372,0.31518 z m 3.221888,-0.10506 q -0.105061,0 -0.201368,-0.24514 -0.08755,-0.2539 -0.08755,-0.7617 0.0088,-0.98933 0.02626,-2.39016 0.02627,-1.40082 0.04378,-2.10998 0.0088,-0.2539 0.08755,-0.47278 0.08755,-0.21888 0.297675,-0.21888 0.07004,0 0.08755,0.0788 0.02627,0.07 0.02627,0.28016 0,0.009 -0.0088,0.0613 0,0.0438 0,0.16634 -0.157593,2.30261 -0.157593,4.49139 0,0.28017 0.122572,0.59535 0.131327,0.31519 0.131327,0.3327 0,0.0875 -0.113817,0.14008 -0.113817,0.0525 -0.253899,0.0525 z m 2.276341,0.10506 q -0.58659,0 -0.866757,-0.32394 -0.280165,-0.32394 -0.280165,-0.80547 0,-0.42025 0.148837,-1.04186 0.157593,-0.62162 0.437755,-1.11191 0.0175,-0.035 0.14008,-0.2539 0.13133,-0.22763 0.28892,-0.34145 0.1576,-0.12257 0.3327,-0.12257 0.0788,0 0.14008,0.0438 0.07,0.035 0.07,0.0963 0,0.0175 -0.0525,0.0876 -0.0438,0.0613 -0.07,0.0963 -0.29767,0.35896 -0.48153,0.70917 -0.24515,0.44651 -0.38523,0.88427 -0.131325,0.43775 -0.131325,0.95431 0,0.69165 0.840495,0.69165 0.39398,0 0.72667,-0.22763 0.34145,-0.22763 0.54282,-0.55157 0.20137,-0.3327 0.20137,-0.60411 0,-0.30643 -0.20137,-0.53406 -0.20137,-0.22764 -0.55157,-0.48153 -0.22763,-0.16635 -0.3327,-0.27141 -0.10506,-0.10507 -0.10506,-0.17511 0,-0.10506 0.14884,-0.16634 0.14884,-0.0701 0.35021,-0.0701 0.11381,0 0.14883,0.0175 0.035,0.009 0.035,0.0438 0,0.0175 -0.035,0.0613 -0.0263,0.035 -0.0263,0.0613 0,0.0263 0.1751,0.17511 0.35021,0.28892 0.58659,0.58659 0.23639,0.29767 0.23639,0.70041 0,0.34145 -0.2539,0.78796 -0.2539,0.44652 -0.71792,0.77046 -0.46402,0.31518 -1.05937,0.31518 z m 11.27662,-0.31518 q -0.10506,0 -0.16635,-0.009 -0.0613,-0.0175 -0.0875,-0.0788 -0.0788,-0.13132 -0.18386,-0.7792 -0.10506,-0.64788 -0.20136,-1.48838 -0.21013,-2.56525 -0.32394,-2.61778 -0.0963,0.21012 -0.29768,0.79671 -0.20137,0.57784 -0.46402,1.51464 -0.28892,1.00684 -0.43776,1.39207 -0.14884,0.37647 -0.26265,0.46402 -0.07,0.0613 -0.17511,0.12258 -0.0963,0.0525 -0.16634,0.0525 -0.0875,0 -0.11382,-0.0175 -0.0263,-0.0263 -0.0613,-0.14009 -0.035,-0.13132 -0.16634,-0.81422 -0.13133,-0.69166 -0.20137,-1.24323 l -0.0525,-0.36772 q -0.14884,-1.13817 -0.20137,-1.2695 -0.16635,0.14884 -0.31519,0.66539 -0.14883,0.5078 -0.34145,1.4446 -0.18385,0.72668 -0.44651,2.36389 -0.009,0.0963 -0.13133,0.1751 -0.12257,0.0788 -0.21887,0.0788 -0.14009,0 -0.1576,-0.27141 -0.009,-0.27141 -0.12257,-1.17319 -0.10506,-0.90178 -0.19261,-1.58468 -0.12257,-0.97182 -0.3327,-1.80356 -0.0613,-0.26265 -0.0613,-0.29767 0,-0.13133 0.12257,-0.21013 0.13133,-0.0875 0.28016,-0.0875 0.07,0 0.14884,0.54282 0.0788,0.54282 0.16635,1.3658 l 0.0263,0.28892 q 0.035,0.28892 0.0788,0.60411 0.16635,1.33953 0.18386,1.68098 0.1751,-1.01559 0.39398,-2.03994 l 0.0788,-0.38523 q 0.19261,-0.92804 0.42024,-1.40082 0.22764,-0.48153 0.5866,-0.48153 0.11381,0 0.2539,0.59535 0.14008,0.58659 0.21887,1.37455 0.0613,0.56033 0.1576,1.09439 0.0963,0.53407 0.1751,0.74419 0.0525,-0.14884 0.21012,-0.65663 0.16635,-0.5078 0.30643,-0.96307 0.42901,-1.46211 0.91054,-2.61779 0.0875,-0.18385 0.16635,-0.26265 0.0875,-0.0875 0.29767,-0.0875 0.11382,0 0.24514,0.99808 0.13133,0.99809 0.21888,2.31136 0.23639,1.85609 0.429,2.02244 0.13133,0.11382 0.13133,0.24514 0,0.0613 -0.10506,0.14008 -0.0963,0.07 -0.21888,0.07 z m 1.33954,-5.0955 q -0.14883,0 -0.30643,-0.12257 -0.14883,-0.12257 -0.14883,-0.20137 0,-0.0963 0.0875,-0.18385 0.0963,-0.0876 0.19261,-0.0876 0.13133,0.0438 0.21888,0.14009 0.07,0.07 0.15759,0.18386 0.0876,0.11381 0.0876,0.14008 0,0.13132 -0.28892,0.13132 z m 0.26266,5.55076 q -0.12258,-0.009 -0.18386,-0.39398 -0.0525,-0.38522 -0.11382,-1.46211 -0.035,-0.70916 -0.0613,-1.38331 -0.0263,-0.6829 -0.035,-1.05062 0,-0.0963 0.0263,-0.14008 0.035,-0.0525 0.12257,-0.0525 0.20137,0 0.2539,0.16635 0.0525,0.16635 0.0525,0.63912 l -0.009,1.03311 q 0,0.88427 0.0525,1.41833 0,0.0263 0.0788,0.56033 0.0613,0.36772 0.0613,0.49029 0,0.0876 -0.0788,0.13133 -0.07,0.0525 -0.16634,0.0438 z m 3.75596,-0.20136 q -0.1751,0 -0.48153,-0.42901 -0.29768,-0.43775 -0.75295,-1.18194 l -0.10506,-0.1751 q -0.1751,0.31518 -0.28892,0.53406 -0.10506,0.21012 -0.21012,0.47278 -0.1751,0.42024 -0.1751,0.49904 0,0.12257 0.12257,0.12257 0.0263,0 0.0875,-0.0438 0.0613,-0.0438 0.0876,-0.0438 0.0438,0 0.0788,0.0263 0.035,0.0263 0.035,0.0613 0,0.0525 -0.13133,0.17511 -0.13133,0.12257 -0.29767,0.21887 -0.1576,0.0963 -0.2539,0.0963 -0.07,0 -0.12258,-0.12257 -0.0525,-0.11382 -0.0525,-0.24515 0,-0.23638 0.19262,-0.65663 0.20136,-0.429 0.59535,-1.18194 l 0.14008,-0.2539 q -0.1751,-0.37648 -0.47278,-0.94556 -0.28892,-0.57784 -0.51655,-0.94555 -0.13133,-0.22764 -0.13133,-0.43776 0,-0.0875 0.0175,-0.12257 0.0263,-0.035 0.07,-0.035 0.0788,0 0.16635,0.0876 0.0875,0.0788 0.21012,0.28892 0.39398,0.63037 0.88427,1.68974 0.035,-0.0613 0.20137,-0.35021 0.27141,-0.49028 0.53406,-0.90178 0.18386,-0.26265 0.28017,-0.3502 0.10506,-0.0875 0.28892,-0.0875 0.2539,0 0.2539,0.14008 0,0.035 -0.0263,0.0613 -0.0263,0.0175 -0.12257,0.07 -0.0875,0.0438 -0.18386,0.14008 -0.14884,0.14884 -0.46402,0.63912 -0.31519,0.48154 -0.59535,0.99809 0.19261,0.36772 0.44651,0.74419 0.26266,0.36771 0.46402,0.61286 0.21013,0.23639 0.26266,0.23639 0.12257,0 0.20137,-0.22764 0.0175,-0.0613 0.0438,-0.13133 0.035,-0.07 0.0788,-0.07 0.10506,0 0.10506,0.0963 0,0.11382 -0.0788,0.34145 -0.0788,0.22763 -0.18385,0.41149 -0.10507,0.17511 -0.20137,0.17511 z"
         transform="matrix(-0.09440165,1.0867201,-1.0867201,-0.09440165,373.94247,95.951922)" />
    </g>
  </g>
</svg>
